<?xml version="1.0" encoding="utf-8"?>
<!-- Generator: Adobe Illustrator 23.0.2, SVG Export Plug-In . SVG Version: 6.00 Build 0)  -->
<svg version="1.1" id="Layer_1" xmlns="http://www.w3.org/2000/svg" xmlns:xlink="http://www.w3.org/1999/xlink" x="0px" y="0px"
	 viewBox="0 0 1000 1000" style="enable-background:new 0 0 1000 1000;" xml:space="preserve">
<style type="text/css">
	.st0{opacity:0.5;}
	.st1{fill:#0098FF;}
	.st2{fill:#FFFFFF;}
	.st3{fill:#0075D5;}
	.st4{fill:#E2B596;}
	.st5{fill:#292949;}
	.st6{opacity:0.26;fill:#000909;}
	.st7{opacity:0.05;fill:#000004;}
	.st8{opacity:0.12;fill:#000100;}
	.st9{fill:#E4EAE9;}
	.st10{opacity:0.47;}
	.st11{fill:#8B9498;}
	.st12{opacity:0.32;fill:#8B9498;}
	.st13{fill:#0089E5;}
	.st14{fill:#00A4FF;}
</style>
<g class="st0">
	<path class="st1" d="M456.84,861.44c-28.19,0.1-56.39,0.91-84.53,4.66c-10.61,1.41-21,4.52-31.64,5.78
		c-21.24,2.5-42.11,7.18-63.43,9.33c-17.17,1.74-34.41,2.76-51.53,4.96c-16.05,2.06-33.82,1.59-49.74-1.82
		c-11.79-2.53-23.63-3.95-35.23-8c-12.97-4.54-27.05-7.78-40.57-7.66c-19.27,0.17-38.03,0.19-56.47,8.2
		c-6.47,2.81-14.4,7.44-19.31,13.34c-11.25,13.51-12.77,47.22-1.54,61.24c18.92,23.58,59.3,32.84,85.83,33.28
		c29.06,0.48,57.3-2.1,86.4-3.62c27.05-1.41,54.02-3.42,81.11-3.35c55.33,0.14,110.66,0,165.89-4.43
		c51.89-4.16,103.91-2.73,155.91-2.73c53.33,0,106.29,0.5,159.23,8.99c23.07,3.7,46.57,4.99,69.75,7.58
		c20.76,2.32,40.71-0.05,61.39-2.19c17.36-1.8,34.62-7.14,50.39-16.17c12.49-7.15,34.75-29.35,38.58-46.41
		c10.74-47.83-151.3-46.68-176.18-46.57c-27.83,0.12-55.88,1.22-83.69-0.05c-11.7-0.53-23.22-3.27-34.64-6.27
		c-11.37-2.99-22.83-2.23-34.36-3.48c-48.09-5.24-96.29-4.47-144.54-4.47C488.26,861.55,472.55,861.38,456.84,861.44z"/>
</g>
<path class="st1" d="M586.03,109.03c0.39,38.88-67.61,142.14-67.61,142.14s-70.05-101.89-70.44-140.76
	c-0.39-38.88,30.2-70.7,68.32-71.08C554.43,38.95,585.64,70.15,586.03,109.03z"/>
<ellipse transform="matrix(1 -9.986688e-03 9.986688e-03 1 -1.039 5.1682)" class="st2" cx="516.98" cy="106.62" rx="32.45" ry="33.09"/>
<path class="st2" d="M459.87,116.47c-0.34-33.77,26.23-61.42,59.35-61.75c19.36-0.19,36.66,8.99,47.77,23.4
	c-10.54-18.23-30.07-30.37-52.3-30.15c-33.12,0.33-59.69,27.98-59.35,61.75c0.14,14.03,4.91,26.91,12.8,37.15
	C462.99,137.95,459.98,127.57,459.87,116.47z"/>
<path class="st3" d="M501.87,224.41c9.57,15.98,16.55,26.76,16.55,26.76s68-103.27,67.61-142.14c-0.02-2.04-0.14-4.06-0.33-6.05
	c-2.62,10.83-6.36,21.38-10.99,31.46c-12.79,27.86-31.93,45.83-52.29,68.53C515.86,210.3,509.03,217.54,501.87,224.41z"/>
<g>
	<path class="st4" d="M522.75,235.4c-0.49,0.1-1.01,0.21-1.44,0.44c-4.01,2.14-4.83,5.66-8.09,8.81c-1.46,1.4-6.52,0.22-5.71,4.36
		c0.3,1.53,1.56,5.18,2.23,8.43c0.97,4.75-0.66,11.35-2.93,16.36c-3.05,6.73-6.43,13.77-10.41,19.92
		c-8.37,12.91-19.12,26.36-29.81,37.46c-19.11-16.84-47.98-21.68-71.54-12.01c-2.46,1.01-4.95,2.23-6.64,4.28
		c-1.43,1.74-2.17,3.94-2.63,6.15c-4.83,23.31,17.46,26.89,35.3,30.53c11.14,2.27,22.58,3.87,33.94,4.48
		c15.9,0.85,26.35-8.03,35.72-20.41c9.92-13.11,19.74-26.58,26.68-41.56c3.37-7.28,5.13-14.68,7.5-22.26
		c2.34-7.5,5.55-6.03,9.29-12.07c2.08-3.37,4.85-6.41,6.27-10.12c2.56-6.65-1.42-12.85-4.35-18.61c-0.73-1.43-1.22-2.4-2.46-3.27
		c-2.01-1.41-4.39-1.32-6.75-1.31C525.52,235.01,524.11,235.13,522.75,235.4z"/>
</g>
<g>
	<path class="st3" d="M428.33,372.58c1.25,0.42,2.5,0.79,3.73,1.07c6.75,1.55,14.8,0.99,21.7,1.1c12.39,0.2,25.89,0.04,35.58-7.68
		c3.74-2.97,6.61-6.87,9.42-10.74c13.31-18.32,26.16-36.98,38.53-55.95c-8.12-8.69-17.57-16.14-27.92-22.01
		c-2.9-1.65-6.16-3.22-9.45-2.62c-4.88,0.89-7.59,6.01-9.6,10.55c-3.27,7.38-6.54,14.77-9.81,22.15c-1.06,2.4-2.33,5.01-4.75,6.01
		c-1.58,0.66-3.37,0.49-5.07,0.29c-13.81-1.63-27.45-4.47-40.81-8.3c-6.16-1.77-13.38-3.15-18.68-6.77
		c-5.42-3.7-9.27-9.11-12.59-14.68c-3.64-6.11-6.84-12.56-11.61-17.83c-4.77-5.27-11.54-9.3-18.63-8.76
		c-5.22,0.4-9.93,3.17-14.41,5.88c-8.8,5.31-18.36,11.61-20.82,21.58c-2.11,8.55,1.72,17.47,6.75,24.69
		c10.69,15.37,26.66,26.11,42.24,36.49c10.84,7.22,21.74,14.47,33.55,20.03C419.67,368.96,424.02,371.12,428.33,372.58z"/>
</g>
<g>
	<g>
		<polygon class="st5" points="258.79,915.37 257.94,929.79 285.93,945.89 301.19,932.32 287.62,917.06 259.63,900.96 		"/>
	</g>
	<g>
		<polygon class="st5" points="239.02,477.56 236.45,521.34 283.7,714.48 257.55,910.64 285.81,918.03 366.1,682.7 368.02,611.73 
			349.54,465.66 		"/>
	</g>
</g>
<g>
	<g>
		<polygon class="st5" points="420.18,501.12 440.26,684.35 428.86,924.25 402.28,926.85 364.12,710.26 306.37,495.59 		"/>
	</g>
	<g>
		<polygon class="st5" points="402.12,923.67 403.53,938.05 433.68,949.6 446.65,933.82 430.87,920.86 		"/>
	</g>
</g>
<g>
	<path class="st3" d="M213.72,500.78c-1.89,16.71-3.43,39.33,2.93,40.74c1.19,0.26,2.4-0.23,3.51-0.71
		c11.68-5.06,20.33-12.89,31.83-17.76c12.05-5.1,25.5-7.17,38.6-8.28c19.6-1.76,39.51-2.15,59.19-0.7
		c15.47,1.14,30.87,3.87,46.13,6.55c12.7,2.23,24.26,7.11,37.37,7.4c13.44,0.29,26.98-2.6,39.04-8.58c0.44-0.22,0.91-0.47,1.13-0.91
		c0.24-0.48,0.1-1.06-0.04-1.58c-2.05-7.73-3.33-15.31-7.72-21.95c-4.9-7.42-8.03-16.57-11.32-24.8
		c-6.84-17.17-13.12-35.08-17.35-53.08c-6.64-24.56-14.58-48.62-20.92-73.23c-4.39-17.06-8.24-34.36-14.81-50.76
		c-5.15-12.83-14.68-31.77-27.65-38.4c-4.39-2.24-9.4-2.87-14.29-3.45c-14.84-1.78-29.68-3.57-44.52-5.35
		c-5.41-0.65-11.04-1.28-16.19,0.5c-7.72,2.67-12.61,10.07-16.94,17c-19.39,31.06-33.06,65.21-42.23,100.87
		c-4.79,18.62-9.34,37.3-13.28,56.11c-4.39,20.99-8.03,42.14-10.33,63.45C215.6,486.23,214.62,492.84,213.72,500.78z"/>
</g>
<g>
	<path class="st2" d="M329.38,330.25c-0.21,8.48-2.18,16.81-4.14,25.07c-11.95,50.3-23.91,100.59-35.86,150.89
		c39.99,3.3,79.97,6.59,119.96,9.89c0.29-19.23,0.59-38.45,0.88-57.68c0.19-12.33,0.38-24.7-1.11-36.94
		c-2.4-19.76-9.1-38.76-15.76-57.58c-12.3-34.78-24.6-69.56-36.89-104.34c-0.66-1.86-1.35-3.78-2.75-5.21
		c-1.67-1.7-4.1-2.45-6.42-3.07c-11.24-3.03-23.98-5.88-35.61-5.24c-3.82,10.19,5.11,29.32,8.14,39.39
		C324.23,300.09,329.76,314.75,329.38,330.25z"/>
</g>
<g>
	<g>
		<path class="st4" d="M343.38,258.23c-8.25-1.11-16.5-2.23-24.75-3.34c0.16-6.64,0.84-13.26,2.05-19.78
			c-0.15,0.79-12.76-7.4-13.79-9.1c-2.96-4.87-2.65-12.57-3.56-18.13c-1.94-11.84-3.56-25.11,3.49-34.82
			c7.3-10.05,21.32-12.44,33.71-11.63c15.56,1.01,32.48,7.12,39.25,21.17c6.11,12.69-4.6,29.6-8.36,42.09
			c-1.85,6.16-4.46,13.14-10.53,15.25c-3.22,1.12-6.96,0.63-9.91,2.36C345.8,245.35,346.21,252.92,343.38,258.23z"/>
	</g>
	<g>
		<path class="st5" d="M406.35,161.82c1.71-8.5,3.41-16.99,5.12-25.49c0.63-3.16,1.27-6.43,0.51-9.56
			c-1.25-5.2-6.09-8.82-11.11-10.69c-5.02-1.86-10.43-2.41-15.53-4.03c-5.44-1.73-10.62-4.7-16.33-4.97
			c-10.85-0.51-20.04,8.76-30.88,9.5c-15.01,1.01-27.98-7-38.5,9.59c-1.93,3.05-2.72,6.69-4.47,9.85
			c-2.26,4.08-5.97,7.12-8.97,10.69c-13.22,15.67-11.76,41.42,1.13,56.9c6.25,7.51,8.49,13.98,17.76,17.05
			c-3.53-9.21,5.4-43.81,17.63-46.67c3.24-0.76,12.34,3.95,15.77,4.78c7.61,1.83,15,3.75,21.99,7.42
			c10.37,5.44,21.78,9.67,33.36,11.61c1.48,0.25,3.14,0.46,4.36-0.43c1.14-0.83,1.5-2.35,1.78-3.73
			C402.09,183.04,404.22,172.43,406.35,161.82z"/>
	</g>
</g>
<rect x="214.45" y="353.58" transform="matrix(0.9382 0.3461 -0.3461 0.9382 200.2525 -85.1393)" class="st1" width="248.16" height="329.19"/>
<polygon class="st6" points="187.43,622.81 190.92,624.09 394.19,706.28 496.53,412.2 485.97,411.41 "/>
<rect x="227.6" y="364.18" transform="matrix(0.9382 0.3461 -0.3461 0.9382 199.6981 -85.4644)" class="st2" width="223.13" height="304.57"/>
<polygon class="st7" points="286.45,333.47 437.03,389.01 239.73,459.38 "/>
<g>
	
		<rect x="342.4" y="371.8" transform="matrix(0.9382 0.3461 -0.3461 0.9382 154.3916 -112.0124)" class="st8" width="96.91" height="9.04"/>
	<g>
		<path class="st9" d="M428.71,356.31l-1.41-0.52l0.35-0.95c3.29-8.91-2.4-19.21-12.69-23l-13.56-5c-10.29-3.8-21.3,0.35-24.58,9.25
			l-0.35,0.95l-1.41-0.52c-10.29-3.8-21.3,0.35-24.58,9.25l-6.65,18.02l90.92,33.54l6.65-18.02
			C444.68,370.4,439,360.11,428.71,356.31z M413.72,351.2l-23.95-8.84c-2.45-0.9-3.72-3.63-2.82-6.07c0.9-2.43,3.64-3.69,6.08-2.78
			l23.95,8.84c2.45,0.9,3.72,3.63,2.82,6.07C418.91,350.86,416.17,352.11,413.72,351.2z"/>
	</g>
</g>
<g class="st10">
	<path class="st11" d="M316.22,436.43c-10.25-3.78-20.49-7.56-30.74-11.34c-0.87-0.32-1.87,0.14-2.19,1
		c-3.76,10.18-7.51,20.37-11.27,30.55c-0.32,0.86,0.15,1.86,1.01,2.18c10.25,3.78,20.49,7.56,30.74,11.34
		c0.47,0.17,0.89,0.14,1.24-0.03c0.02-0.01,0.05-0.02,0.07-0.03c0.01-0.01,0.03-0.01,0.04-0.02c0.35-0.16,0.66-0.45,0.83-0.92
		c3.76-10.18,7.51-20.37,11.27-30.55C317.55,437.75,317.09,436.75,316.22,436.43z M303.35,466.39c-9.18-3.39-18.36-6.77-27.53-10.16
		c3.36-9.12,6.73-18.25,10.09-27.37c9.18,3.39,18.36,6.77,27.53,10.16C310.08,448.14,306.72,457.27,303.35,466.39z"/>
	<path class="st11" d="M295.39,492.92c-10.24-3.78-20.49-7.56-30.74-11.34c-0.87-0.32-1.87,0.14-2.19,1
		c-3.76,10.18-7.51,20.37-11.27,30.55c-0.32,0.86,0.15,1.86,1.01,2.18c10.25,3.78,20.49,7.56,30.74,11.34
		c0.47,0.17,0.89,0.13,1.24-0.03c0.02-0.01,0.05-0.02,0.07-0.03c0.01-0.01,0.03-0.01,0.04-0.02c0.35-0.16,0.66-0.45,0.83-0.92
		c3.76-10.18,7.51-20.37,11.27-30.55C296.72,494.24,296.26,493.24,295.39,492.92z M282.52,522.88c-9.18-3.39-18.36-6.77-27.53-10.16
		c3.36-9.12,6.73-18.25,10.09-27.37c9.18,3.39,18.36,6.77,27.53,10.16C289.25,504.63,285.88,513.76,282.52,522.88z"/>
	<path class="st11" d="M274.55,549.41c-10.25-3.78-20.49-7.56-30.74-11.34c-0.87-0.32-1.87,0.14-2.19,1
		c-3.76,10.18-7.51,20.37-11.27,30.55c-0.32,0.86,0.15,1.86,1.01,2.18c10.25,3.78,20.49,7.56,30.74,11.34
		c0.47,0.17,0.89,0.13,1.24-0.03c0.02-0.01,0.05-0.02,0.07-0.03c0.01-0.01,0.03-0.01,0.04-0.02c0.35-0.16,0.66-0.45,0.83-0.92
		c3.76-10.18,7.51-20.37,11.27-30.55C275.89,550.73,275.42,549.73,274.55,549.41z M261.69,579.37c-9.18-3.39-18.36-6.77-27.53-10.16
		c3.36-9.12,6.73-18.25,10.09-27.37c9.18,3.39,18.36,6.77,27.53,10.16C268.41,561.13,265.05,570.25,261.69,579.37z"/>
</g>
<polygon class="st1" points="291.58,440.47 299.5,440.73 300.84,449.2 343.51,437.47 347.15,439.69 296.1,457.21 "/>
<polygon class="st1" points="267.65,497.45 275.58,497.71 276.91,506.18 319.59,494.44 323.22,496.67 272.18,514.19 "/>
<polygon class="st1" points="247.29,550.68 255.22,550.94 256.55,559.41 299.23,547.68 302.86,549.9 251.82,567.42 "/>
<rect x="283.33" y="588.6" transform="matrix(0.9382 0.3461 -0.3461 0.9382 227.6015 -81.1781)" class="st12" width="115.57" height="16.28"/>
<rect x="305.4" y="528.77" transform="matrix(0.9382 0.3461 -0.3461 0.9382 208.2578 -92.5124)" class="st12" width="115.57" height="16.28"/>
<rect x="327.46" y="468.93" transform="matrix(0.9382 0.3461 -0.3461 0.9382 188.9133 -103.8464)" class="st12" width="115.57" height="16.28"/>
<path class="st4" d="M237.16,409.54c-0.71,1.9-0.71,4.56,1.15,5.38c1.11,0.5,2.38,0.08,3.58-0.13c4.53-0.8,9.43,1.89,11.18,6.15
	c2.06,5.01-0.32,11.03-4.48,14.49c-4.16,3.46-9.7,4.79-15.09,5.27c-3.39,0.3-7.17,0.17-9.65-2.15c-1.27-1.19-2.04-2.83-2.7-4.44
	c-3.39-8.3-6.22-19.13,0.34-26.68C226.65,401.48,241.96,396.69,237.16,409.54z"/>
<path class="st3" d="M198.38,407.85c0.68-0.85,1.46-1.64,2.35-2.37c7.2-5.83,16.51-11.43,26.09-8.46
	c-2.88,17.75-0.14,36.36,7.74,52.52c0.62,1.28,1.29,2.76,0.71,4.06c-1.09,2.44-8.96,4.18-11.32,4.29
	c-10.43,0.46-21.17-4.74-25.7-12.43c-2.65-4.51-3.24-9.54-3.74-14.44C193.74,423.46,193.38,414.1,198.38,407.85z"/>
<rect x="547.32" y="725.44" class="st13" width="242.57" height="234.24"/>
<polygon class="st3" points="789.89,959.68 849.87,899.69 849.87,665.46 789.89,725.44 "/>
<polygon class="st14" points="789.89,725.44 849.87,665.46 607.31,665.46 547.32,725.44 "/>
<polygon class="st3" points="711.34,665.46 651.36,725.44 651.36,772.65 685.81,772.65 685.81,725.44 685.85,725.44 745.84,665.46 
	"/>
<g>
	<polygon class="st2" points="719,786.89 685.83,829.7 705.96,829.7 705.96,898.28 732.04,898.28 732.04,829.7 752.16,829.7 	"/>
	<polygon class="st2" points="585.05,829.7 605.18,829.7 605.18,898.28 631.25,898.28 631.25,829.7 651.38,829.7 618.22,786.89 	"/>
</g>
<g>
	<rect x="579.43" y="911.53" class="st2" width="178.36" height="3.53"/>
	<rect x="579.43" y="922.04" class="st2" width="178.36" height="3.53"/>
	<rect x="579.43" y="932.55" class="st2" width="178.36" height="3.53"/>
</g>
</svg>
