<?xml version="1.0"?>
<svg xmlns="http://www.w3.org/2000/svg" id="Layer_3" enable-background="new 0 0 64 64" height="512px" viewBox="0 0 64 64" width="512px" class=""><g><path d="m18 47v2c.711 0 1.426-.044 2.124-.132l-.248-1.984c-.617.077-1.248.116-1.876.116z" data-original="#000000" class="active-path" data-old_color="#0091ff" fill="#0091ff"/><path d="m21.75 46.527.499 1.938c6.344-1.634 11.232-6.846 12.452-13.278l-1.965-.373c-1.075 5.674-5.388 10.273-10.986 11.713z" data-original="#000000" class="active-path" data-old_color="#0091ff" fill="#0091ff"/><path d="m18 17v-2c-.711 0-1.426.044-2.124.132l.248 1.984c.617-.077 1.248-.116 1.876-.116z" data-original="#000000" class="active-path" data-old_color="#0091ff" fill="#0091ff"/><path d="m14.25 17.473-.499-1.938c-7.508 1.933-12.751 8.703-12.751 16.465h2c0-6.849 4.626-12.822 11.25-14.527z" data-original="#000000" class="active-path" data-old_color="#0091ff" fill="#0091ff"/><path d="m63 19v-11.414l-6.586-6.586h-9.414v8h-3c-1.654 0-3 1.346-3 3v19h-10.051c-.514-6.701-6.118-12-12.949-12-7.168 0-13 5.832-13 13s5.832 13 13 13c6.831 0 12.435-5.299 12.949-12h10.051v19c0 1.654 1.346 3 3 3h3v8h16v-11.414l-6.586-6.586h-9.414v8h-3c-.551 0-1-.448-1-1v-19h4v8h16v-11.414l-6.586-6.586h-9.414v8h-4v-19c0-.552.449-1 1-1h3v8zm-45 24c-6.065 0-11-4.935-11-11s4.935-11 11-11 11 4.935 11 11-4.935 11-11 11zm39 5.414 2.586 2.586h-2.586zm-8-1.414h6v6h6v8h-12zm8-20.586 2.586 2.586h-2.586zm-8-1.414h6v6h6v8h-12zm8-20.586 2.586 2.586h-2.586zm-8-1.414h6v6h6v8h-12z" data-original="#000000" class="active-path" data-old_color="#0091ff" fill="#0091ff"/><path d="m51 5h2v2h-2z" data-original="#000000" class="active-path" data-old_color="#0091ff" fill="#0091ff"/><path d="m51 9h2v2h-2z" data-original="#000000" class="active-path" data-old_color="#0091ff" fill="#0091ff"/><path d="m51 13h7v2h-7z" data-original="#000000" class="active-path" data-old_color="#0091ff" fill="#0091ff"/><path d="m51 27h2v2h-2z" data-original="#000000" class="active-path" data-old_color="#0091ff" fill="#0091ff"/><path d="m51 31h2v2h-2z" data-original="#000000" class="active-path" data-old_color="#0091ff" fill="#0091ff"/><path d="m51 35h8v2h-8z" data-original="#000000" class="active-path" data-old_color="#0091ff" fill="#0091ff"/><path d="m51 49h2v2h-2z" data-original="#000000" class="active-path" data-old_color="#0091ff" fill="#0091ff"/><path d="m51 53h2v2h-2z" data-original="#000000" class="active-path" data-old_color="#0091ff" fill="#0091ff"/><path d="m51 57h8v2h-8z" data-original="#000000" class="active-path" data-old_color="#0091ff" fill="#0091ff"/><path d="m14 31h12v2h-12z" data-original="#000000" class="active-path" data-old_color="#0091ff" fill="#0091ff"/><path d="m10 31h2v2h-2z" data-original="#000000" class="active-path" data-old_color="#0091ff" fill="#0091ff"/><path d="m24 35h2v2h-2z" data-original="#000000" class="active-path" data-old_color="#0091ff" fill="#0091ff"/><path d="m10 35h12v2h-12z" data-original="#000000" class="active-path" data-old_color="#0091ff" fill="#0091ff"/><path d="m10 27h16v2h-16z" data-original="#000000" class="active-path" data-old_color="#0091ff" fill="#0091ff"/></g> </svg>
