<svg height="480pt" viewBox="0 -4 480 480" width="480pt" xmlns="http://www.w3.org/2000/svg"><path d="m356.480469 237.441406c.824219 2.445313.421875 5.136719-1.085938 7.230469-1.507812 2.097656-3.933593 3.335937-6.515625 3.328125h-44.878906l-8-16c4.417969 0 8-3.582031 8-8v-72h12.480469c6.890625.015625 13.007812 4.425781 15.199219 10.960938zm0 0" fill="#1e81ce"/><path d="m240 232h-56c-4.417969 0-8-3.582031-8-8v-123.359375c.035156-31.464844 13.269531-61.472656 36.480469-82.71875 10.878906-9.921875 21.441406-17.921875 27.519531-17.921875s16.640625 8 27.519531 17.921875c23.210938 21.246094 36.445313 51.253906 36.480469 82.71875v123.359375c0 4.417969-3.582031 8-8 8zm0 0" fill="#3d9ae2"/><path d="m280 232-16 32h-48l-16-32zm0 0" fill="#1e81ce"/><path d="m240 296c22.089844 0 40 17.910156 40 40 0 32-40 56-40 56s-40-24-40-56c0-22.089844 17.910156-40 40-40zm0 0" fill="#ff5023"/><path d="m184 232-8 16h-44.878906c-2.582032.007812-5.007813-1.230469-6.515625-3.328125-1.507813-2.09375-1.910157-4.785156-1.085938-7.230469l24.800781-74.480468c2.191407-6.535157 8.308594-10.945313 15.199219-10.960938h12.480469v72c0 4.417969 3.582031 8 8 8zm0 0" fill="#1e81ce"/><path d="m400 384c-2.929688.015625-5.847656.355469-8.703125 1.015625-3.601563-20.40625-22.207031-34.671875-42.851563-32.855469-20.640624 1.820313-36.464843 19.117188-36.445312 39.839844-.707031.023438-1.410156.09375-2.105469.214844-3.523437-6.371094-10.917969-9.546875-17.96875-7.710938-7.046875 1.835938-11.957031 8.210938-11.925781 15.496094-3.566406.011719-7.027344 1.226562-9.816406 3.449219-9.550782-4.929688-20.976563-4.554688-30.183594.992187-9.207031-5.546875-20.632812-5.921875-30.183594-.992187-2.789062-2.222657-6.25-3.4375-9.816406-3.449219.03125-7.285156-4.878906-13.660156-11.925781-15.496094-7.050781-1.835937-14.445313 1.339844-17.96875 7.710938-.695313-.121094-1.398438-.191406-2.105469-.214844.019531-20.722656-15.804688-38.019531-36.445312-39.839844-20.644532-1.816406-39.25 12.449219-42.851563 32.855469-2.855469-.660156-5.773437-1-8.703125-1.015625-22.089844 0-40 17.910156-40 40s17.910156 40 40 40h144c5.632812-.027344 11.15625-1.5625 16-4.441406 4.84375 2.878906 10.367188 4.414062 16 4.441406h144c22.089844 0 40-17.910156 40-40s-17.910156-40-40-40zm0 0" fill="#96c8ef"/><path d="m232 168h16v64h-16zm0 0" fill="#1e81ce"/><path d="m232 328h16v16h-16zm0 0" fill="#ed1c24"/><g fill="#78b9eb"><path d="m360 328c-30.914062-.035156-55.964844-25.085938-56-56h16c.027344 22.082031 17.917969 39.972656 40 40zm0 0"/><path d="m120 328v-16c22.082031-.027344 39.972656-17.917969 40-40h16c-.035156 30.914062-25.085938 55.964844-56 56zm0 0"/><path d="m376 312h16v16h-16zm0 0"/><path d="m88 312h16v16h-16zm0 0"/><path d="m360 48h16v48h-16zm0 0"/><path d="m360 112h16v16h-16zm0 0"/><path d="m416 96h16v48h-16zm0 0"/><path d="m416 160h16v16h-16zm0 0"/><path d="m104 48h16v48h-16zm0 0"/><path d="m104 112h16v16h-16zm0 0"/><path d="m48 96h16v48h-16zm0 0"/><path d="m48 160h16v16h-16zm0 0"/></g><path d="m240 80c-4.417969 0-8-3.582031-8-8s3.582031-8 8-8 8 3.582031 8 8h16c-.042969-10.132812-6.445312-19.148438-16-22.527344v-9.472656h-16v9.472656c-11.011719 3.878906-17.621094 15.132813-15.644531 26.640625 1.980469 11.507813 11.96875 19.910157 23.644531 19.886719 4.417969 0 8 3.582031 8 8s-3.582031 8-8 8-8-3.582031-8-8h-16c.042969 10.132812 6.445312 19.148438 16 22.527344v9.472656h16v-9.472656c11.011719-3.878906 17.621094-15.132813 15.644531-26.640625-1.980469-11.507813-11.96875-19.910157-23.644531-19.886719zm0 0" fill="#ff5023"/><path d="m160 440c-8.742188.011719-16.800781-4.730469-21.035156-12.382812-4.230469-7.652344-3.96875-17 .6875-24.398438 4.65625-7.402344 12.972656-11.683594 21.699218-11.179688 3.875-11.042968 15.148438-17.683593 26.683594-15.714843 11.539063 1.96875 19.972656 11.972656 19.964844 23.675781h-16c0-4.417969-3.582031-8-8-8s-8 3.582031-8 8c.007812.449219.042969.894531.113281 1.335938.34375 3.027343-1.058593 5.984374-3.617187 7.632812-2.5625 1.648438-5.835938 1.703125-8.449219.136719-1.222656-.734375-2.621094-1.113281-4.046875-1.105469-4.417969 0-8 3.582031-8 8s3.582031 8 8 8zm0 0" fill="#78b9eb"/><path d="m80 472c-26.507812 0-48-21.492188-48-48s21.492188-48 48-48c.902344 0 1.808594 0 2.703125.078125 7.746094-22.085937 30.296875-35.367187 53.371094-31.429687s39.945312 23.945312 39.925781 47.351562c.007812 3.898438-.484375 7.785156-1.464844 11.558594l-15.472656-4.078125c.632812-2.445313.945312-4.957031.9375-7.480469-.046875-16.539062-12.6875-30.316406-29.160156-31.785156s-31.351563 9.859375-34.320313 26.128906c-.382812 2.15625-1.632812 4.0625-3.460937 5.273438-1.824219 1.207031-4.066406 1.617187-6.203125 1.125-2.25-.503907-4.550781-.75-6.855469-.742188-17.671875 0-32 14.328125-32 32s14.328125 32 32 32zm0 0" fill="#78b9eb"/><path d="m320 440v-16c4.417969 0 8-3.582031 8-8s-3.582031-8-8-8c-1.425781-.007812-2.824219.375-4.046875 1.105469-2.605469 1.558593-5.871094 1.511719-8.425781-.128907-2.558594-1.636718-3.96875-4.582031-3.640625-7.601562.066406-.457031.101562-.914062.113281-1.375 0-4.417969-3.582031-8-8-8s-8 3.582031-8 8h-16c.003906-11.695312 8.433594-21.6875 19.960938-23.652344 11.53125-1.96875 22.796874 4.660156 26.679687 15.691406 8.726563-.503906 17.039063 3.777344 21.695313 11.175782 4.65625 7.398437 4.921874 16.746094.691406 24.398437-4.230469 7.648438-12.285156 12.394531-21.027344 12.386719zm0 0" fill="#78b9eb"/><path d="m400 472v-16c17.671875 0 32-14.328125 32-32s-14.328125-32-32-32c-2.304688-.003906-4.601562.25-6.847656.761719-2.136719.488281-4.382813.082031-6.210938-1.125-1.828125-1.210938-3.078125-3.117188-3.460937-5.277344-2.96875-16.265625-17.84375-27.59375-34.3125-26.128906-16.472657 1.464843-29.113281 15.234375-29.167969 31.769531-.011719 2.519531.300781 5.03125.9375 7.472656l-15.464844 4.09375c-.988281-3.773437-1.484375-7.664062-1.472656-11.566406-.007812-23.398438 16.859375-43.394531 39.925781-47.332031 23.066407-3.933594 45.609375 9.335937 53.363281 31.410156.894532-.078125 1.808594-.078125 2.710938-.078125 26.507812 0 48 21.492188 48 48s-21.492188 48-48 48zm0 0" fill="#78b9eb"/><path d="m0 456h480v16h-480zm0 0" fill="#5aaae7"/></svg>