<?xml version="1.0" encoding="utf-8"?>
<!-- Generator: Adobe Illustrator 23.0.2, SVG Export Plug-In . SVG Version: 6.00 Build 0)  -->
<svg version="1.1" id="Layer_1" xmlns="http://www.w3.org/2000/svg" xmlns:xlink="http://www.w3.org/1999/xlink" x="0px" y="0px"
	 viewBox="0 0 1074.86 1000" style="enable-background:new 0 0 1074.86 1000;" xml:space="preserve">
<style type="text/css">
	.st0{fill:url(#SVGID_1_);}
	.st1{fill:url(#SVGID_2_);}
	.st2{fill:url(#SVGID_3_);}
	.st3{fill:none;}
	.st4{fill:url(#SVGID_4_);}
	.st5{fill:#00A8FF;}
</style>
<g>
	<linearGradient id="SVGID_1_" gradientUnits="userSpaceOnUse" x1="818.6281" y1="891.7859" x2="754.926" y2="570.8253">
		<stop  offset="0" style="stop-color:#00A8FF"/>
		<stop  offset="1" style="stop-color:#006FCB"/>
	</linearGradient>
	<path class="st0" d="M709.23,938.71c-58.98,0-94.26,0-167.99-0.34l-2.32-404.77C558.25,544.55,666,351.72,687.79,356.04
		c13.42,2.66,9.75,456.5,9.75,456.5c113.5,0,217.54-90.07,217.54-200.78c0-110.71-82.92-188.31-205.84-200.79
		c-28.02-2.85-62.97-0.83-167.99-0.17c-27.96,0.17-62.73-0.23-106.59,0.17l-1.58-126.18c120.93,0.62,215.32,0,276.16,0
		c184.83,0,335.19,130.51,335.19,326.97C1044.43,792.04,894.06,938.71,709.23,938.71z"/>
</g>
<linearGradient id="SVGID_2_" gradientUnits="userSpaceOnUse" x1="45.9936" y1="293.6564" x2="556.1658" y2="293.6564">
	<stop  offset="0" style="stop-color:#00A8FF"/>
	<stop  offset="1" style="stop-color:#006FCB"/>
</linearGradient>
<path class="st1" d="M556.17,82.18l-91.28,89.04c-28.65-16.12-61.9-25.34-97.35-25.34c-31.16,0-60.6,7.12-86.72,19.78
	c-0.04,0.01-0.07,0.02-0.1,0.05h-0.01c-18.31,8.89-35,20.52-49.48,34.31l-0.04,0.04c-68.25,57.52-111.45,142.56-111.45,237.45
	c0,45.3,9.84,88.36,27.58,127.25C84.95,507.55,45.99,426.32,45.99,336.21c0-173.22,143.95-313.65,321.54-313.65
	C438,22.56,503.19,44.68,556.17,82.18z"/>
<linearGradient id="SVGID_3_" gradientUnits="userSpaceOnUse" x1="465.0932" y1="582.665" x2="168.2898" y2="341.7972">
	<stop  offset="0" style="stop-color:#00A8FF"/>
	<stop  offset="1" style="stop-color:#006FCB"/>
</linearGradient>
<path class="st2" d="M557.53,459.52c0,104.26-85.94,188.94-192.48,190.33h-0.12c-6.9-0.05-13.75-0.32-20.55-0.79
	c-76.04-5.27-144.77-36.35-197.05-84.31c-17.74-38.89-27.58-81.95-27.58-127.25c0-94.88,43.2-179.92,111.45-237.45
	c-36.27,34.56-58.79,82.79-58.79,136.15c0,18.89,2.82,37.13,8.08,54.36c23.97,78.64,98.65,135.99,187.05,135.99
	c82.27,0,145.02-45.48,173.71-115.76l8.63-0.05C554.86,427.54,557.53,441.16,557.53,459.52z"/>
<path class="st3" d="M344.37,649.06c5.93,0.53,11.94,0.81,18.02,0.81c0.84,0,1.68,0,2.53-0.01 M231.22,200.02
	c15.31-12.88,31.86-24.39,49.48-34.31"/>
<linearGradient id="SVGID_4_" gradientUnits="userSpaceOnUse" x1="356.2885" y1="481.2439" x2="676.8689" y2="413.6333">
	<stop  offset="0.402" style="stop-color:#00A8FF"/>
	<stop  offset="1" style="stop-color:#006FCB"/>
</linearGradient>
<path class="st4" d="M694.25,409.91c-9.94,154.84-173.95,239.95-326.71,239.95c-0.83,0-1.66,0-2.49-0.01
	c106.54-1.39,192.48-86.07,192.48-190.33c0-18.36-3.86-34.57-16.28-48.73l-106.59,0.17l-1.58-126.18c86.11,0,172.22,0.1,258.33,0.15
	L694.25,409.91z"/>
<g>
	<path class="st5" d="M59.6,694.28v-9.04l8.99-9.04h53.01v18.08H59.6z M80.26,698.15v32.29h20.67v-9.04H90.6v-18.08h31v36.17
		l-9.04,9.04H68.64l-9.04-9.04v-41.33H80.26z"/>
	<path class="st5" d="M131.98,676.19h20.62v54.25h41.38l-0.05,18.08h-62L131.98,676.19z"/>
	<path class="st5" d="M204.31,694.28v-9.04l8.99-9.04h43.97l9.04,9.04v54.2l-9.04,9.04l-43.92,0.05l-9.04-9.04v-41.33h20.67v32.29
		l20.67-0.05v-36.11H204.31z"/>
	<path class="st5" d="M276.64,694.28v-18.08h52.96l9.04,9.04v21.96l-5.17,5.17l5.17,5.17v21.91l-9.04,9.04l-52.96,0.05v-50.37h20.67
		v5.17l20.67-0.05v-8.99H276.64z M297.31,730.44l20.67-0.05v-8.99h-20.67V730.44z"/>
	<path class="st5" d="M383.54,694.28h-20.67l5.48-18.08h31l21.96,72.33h-20.67l-5.48-18.08h-22.63l-5.48,18.08h-20.67l15.29-50.37
		h20.67l-4.29,14.21h11.63l-5.84-19.17L383.54,694.28z"/>
	<path class="st5" d="M431.69,676.19h20.62v54.25h41.38l-0.05,18.08h-62L431.69,676.19z"/>
</g>
<g>
	<g>
		<path class="st5" d="M57.21,774.66v-9.71h28.45l4.86,4.86v29.11l-4.86,4.86l-28.45,0.03v-27.06h11.1v17.34l11.1-0.03v-19.4H57.21z
			"/>
		<path class="st5" d="M107.16,776.74v2.77h11.13l-0.03,9.71h-11.1v4.86h19.45l-0.03,9.71H96.06l0.03-27.06H107.16z M96.09,774.66
			v-9.71h30.53l-0.03,9.71H96.09z"/>
		<path class="st5" d="M153.67,803.8h-11.1l-11.79-38.85h11.1l9.02,29.72L153.67,803.8z M150.56,791.23l7.96-26.28h11.1
			l-11.79,38.85h-3.47L150.56,791.23z"/>
		<path class="st5" d="M186.28,776.74v2.77h11.13l-0.03,9.71h-11.1v4.86h19.45l-0.03,9.71h-30.53l0.03-27.06H186.28z M175.21,774.66
			v-9.71h30.53l-0.03,9.71H175.21z"/>
		<path class="st5" d="M211.31,764.94h11.07v29.14h22.23l-0.03,9.71h-33.3L211.31,764.94z"/>
		<path class="st5" d="M250.17,774.66v-4.86l4.83-4.86h23.62l4.86,4.86v29.11l-4.86,4.86l-23.59,0.03l-4.86-4.86v-22.2h11.1v17.34
			l11.1-0.03v-19.4H250.17z"/>
		<path class="st5" d="M289.02,774.66v-9.71h28.45l4.86,4.86v14.54l-4.86,4.86l-17.34,0.03v14.57h-11.1v-27.06h11.1v2.77l11.1-0.03
			v-4.83H289.02z"/>
		<path class="st5" d="M354.93,803.8h-11.1l-4.86-15.98v15.98h-11.1v-38.85h15.26l6.94,22.87L354.93,803.8z M351.13,784.37
			l5.88-19.43h15.26v38.85h-11.1v-15.98l-4.5,14.85L351.13,784.37z"/>
		<path class="st5" d="M388.93,776.74v2.77h11.13l-0.03,9.71h-11.1v4.86h19.45l-0.03,9.71h-30.53l0.03-27.06H388.93z M377.85,774.66
			v-9.71h30.53l-0.03,9.71H377.85z"/>
		<path class="st5" d="M413.93,774.66v-9.71h17.34l13.18,23.81v-23.78h11.1v38.82h-14.57l-15.96-29.14H413.93z M425.03,776.74v27.06
			h-11.1v-27.06H425.03z"/>
		<path class="st5" d="M461.11,774.66v-9.71h33.3v9.71H461.11z M483.31,776.74v27.03h-11.1v-27.03H483.31z"/>
	</g>
</g>
<rect x="987.86" y="954.14" class="st3" width="28.29" height="18"/>
<g>
	<g>
		<path class="st5" d="M136.71,916.04h-35.29v59.68H57.99V816.58h43.43v59.68h35.29V916.04z M144.85,816.58h43.43v159.03h-43.43
			V816.58z"/>
		<path class="st5" d="M296.85,816.58h43.43v139.14l-19,19.89L229,975.72l-19-19.89V816.58h43.43v119.36l43.43-0.11V816.58z"/>
		<path class="st5" d="M362,856.37v-39.79h111.29l19,19.89v48.31l-10.86,11.37l10.86,11.37v48.2l-19,19.89L362,975.72V864.89h43.43
			v11.37l43.43-0.11v-19.78H362z M405.43,935.94l43.43-0.11v-19.78h-43.43V935.94z"/>
	</g>
</g>
</svg>
