<?xml version="1.0" encoding="utf-8"?>
<!-- Generator: Adobe Illustrator 23.0.2, SVG Export Plug-In . SVG Version: 6.00 Build 0)  -->
<svg version="1.1" id="Layer_1" xmlns="http://www.w3.org/2000/svg" xmlns:xlink="http://www.w3.org/1999/xlink" x="0px" y="0px"
	 viewBox="0 0 1074.86 1000" style="enable-background:new 0 0 1074.86 1000;" xml:space="preserve">
<style type="text/css">
	.st0{fill:url(#SVGID_1_);}
	.st1{fill:url(#SVGID_2_);}
	.st2{fill:url(#SVGID_3_);}
	.st3{fill:none;}
	.st4{fill:url(#SVGID_4_);}
	.st5{fill:#00A8FF;}
	.st6{font-family:'Cyberfall';}
	.st7{font-size:105.8114px;}
	.st8{font-size:56.8363px;}
	.st9{font-size:232.8051px;}
</style>
<g>
	<linearGradient id="SVGID_1_" gradientUnits="userSpaceOnUse" x1="818.6281" y1="891.7859" x2="754.926" y2="570.8253">
		<stop  offset="0" style="stop-color:#00A8FF"/>
		<stop  offset="1" style="stop-color:#006FCB"/>
	</linearGradient>
	<path class="st0" d="M709.23,938.71c-58.98,0-94.26,0-167.99-0.34l-2.32-404.77C558.25,544.55,666,351.72,687.79,356.04
		c13.42,2.66,9.75,456.5,9.75,456.5c113.5,0,217.54-90.07,217.54-200.78c0-110.71-82.92-188.31-205.84-200.79
		c-28.02-2.85-62.97-0.83-167.99-0.17c-27.96,0.17-62.73-0.23-106.59,0.17l-1.58-126.18c120.93,0.62,215.32,0,276.16,0
		c184.83,0,335.19,130.51,335.19,326.97C1044.43,792.04,894.06,938.71,709.23,938.71z"/>
</g>
<linearGradient id="SVGID_2_" gradientUnits="userSpaceOnUse" x1="45.9936" y1="293.6564" x2="556.1658" y2="293.6564">
	<stop  offset="0" style="stop-color:#00A8FF"/>
	<stop  offset="1" style="stop-color:#006FCB"/>
</linearGradient>
<path class="st1" d="M556.17,82.18l-91.28,89.04c-28.65-16.12-61.9-25.34-97.35-25.34c-31.16,0-60.6,7.12-86.72,19.78
	c-0.04,0.01-0.07,0.02-0.1,0.05h-0.01c-18.31,8.89-35,20.52-49.48,34.31l-0.04,0.04c-68.25,57.52-111.45,142.56-111.45,237.45
	c0,45.3,9.84,88.36,27.58,127.25C84.95,507.55,45.99,426.32,45.99,336.21c0-173.22,143.95-313.65,321.54-313.65
	C438,22.56,503.19,44.68,556.17,82.18z"/>
<linearGradient id="SVGID_3_" gradientUnits="userSpaceOnUse" x1="465.0932" y1="582.665" x2="168.2898" y2="341.7972">
	<stop  offset="0" style="stop-color:#00A8FF"/>
	<stop  offset="1" style="stop-color:#006FCB"/>
</linearGradient>
<path class="st2" d="M557.53,459.52c0,104.26-85.94,188.94-192.48,190.33h-0.12c-6.9-0.05-13.75-0.32-20.55-0.79
	c-76.04-5.27-144.77-36.35-197.05-84.31c-17.74-38.89-27.58-81.95-27.58-127.25c0-94.88,43.2-179.92,111.45-237.45
	c-36.27,34.56-58.79,82.79-58.79,136.15c0,18.89,2.82,37.13,8.08,54.36c23.97,78.64,98.65,135.99,187.05,135.99
	c82.27,0,145.02-45.48,173.71-115.76l8.63-0.05C554.86,427.54,557.53,441.16,557.53,459.52z"/>
<path class="st3" d="M344.37,649.06c5.93,0.53,11.94,0.81,18.02,0.81c0.84,0,1.68,0,2.53-0.01 M231.22,200.02
	c15.31-12.88,31.86-24.39,49.48-34.31"/>
<linearGradient id="SVGID_4_" gradientUnits="userSpaceOnUse" x1="356.2885" y1="481.2439" x2="676.8689" y2="413.6333">
	<stop  offset="0.402" style="stop-color:#00A8FF"/>
	<stop  offset="1" style="stop-color:#006FCB"/>
</linearGradient>
<path class="st4" d="M694.25,409.91c-9.94,154.84-173.95,239.95-326.71,239.95c-0.83,0-1.66,0-2.49-0.01
	c106.54-1.39,192.48-86.07,192.48-190.33c0-18.36-3.86-34.57-16.28-48.73l-106.59,0.17l-1.58-126.18c86.11,0,172.22,0.1,258.33,0.15
	L694.25,409.91z"/>
<text transform="matrix(1 0 0 1 54.429 748.5264)" class="st5 st6 st7">GLOBAL</text>
<g>
	<text transform="matrix(1 0 0 1 54.43 803.7974)" class="st5 st6 st8">DEVELOPMENT</text>
</g>
<rect x="987.86" y="954.14" class="st3" width="28.29" height="18"/>
<g>
	<text transform="matrix(0.9551 0 0 1 47.1341 975.7236)" class="st5 st6 st9">HUB</text>
</g>
</svg>
