<?xml version="1.0" encoding="utf-8"?>
<!-- Generator: Adobe Illustrator 23.0.2, SVG Export Plug-In . SVG Version: 6.00 Build 0)  -->
<svg version="1.1" id="Layer_1" xmlns="http://www.w3.org/2000/svg" xmlns:xlink="http://www.w3.org/1999/xlink" x="0px" y="0px"
	 viewBox="0 0 1000 1000" style="enable-background:new 0 0 1000 1000;" xml:space="preserve">
<style type="text/css">
	.st0{fill:#B3DCFF;}
	.st1{fill:#484E7D;}
	.st2{fill:#EEA886;}
	.st3{fill:#5B639E;}
	.st4{fill:#292C47;}
	.st5{fill:#0075D5;}
	.st6{fill:#323657;}
	.st7{fill:#807066;}
	.st8{fill:#0065AA;}
	.st9{fill:#A77860;}
	.st10{fill:#AEDEFF;}
	.st11{fill:#004766;}
	.st12{fill:#78C2FF;}
	.st13{fill:#D6D6D6;}
	.st14{fill:#E8E8E8;}
	.st15{fill:#C2C2C2;}
	.st16{fill:#E3F2FF;}
	.st17{fill:#4DA8F2;}
	.st18{opacity:0.83;}
	.st19{fill:#E0F1FF;}
	.st20{fill:#1A598C;}
	.st21{fill:#2273B5;}
	.st22{opacity:0.78;}
	.st23{fill:#5377B3;}
	.st24{fill:#5B83C2;}
	.st25{fill:#2F4563;}
	.st26{fill:#354C70;}
	.st27{fill:#2B3B57;}
	.st28{fill:#353A3D;}
	.st29{fill:#FF7E55;}
	.st30{fill:#E55353;}
	.st31{fill:#DBCAC3;}
	.st32{fill:#C2BEBC;}
	.st33{opacity:0.74;}
</style>
<g>
	<path class="st0" d="M717.05,734.68H307.78c-16.02,0-29.06-12.92-29.06-28.8V401.31c0-15.88,13.04-28.8,29.06-28.8h409.27
		c16.02,0,29.06,12.92,29.06,28.8v304.57C746.11,721.77,733.07,734.68,717.05,734.68z M307.78,374.31c-15.02,0-27.25,12.11-27.25,27
		v304.57c0,14.89,12.22,27,27.25,27h409.27c15.02,0,27.25-12.11,27.25-27V401.31c0-14.89-12.22-27-27.25-27H307.78z"/>
</g>
<g>
	<g>
		<g>
			<path class="st1" d="M807.58,412.68c0,0,7.47,3.34,10.8,4.5c3.33,1.16,15.55-0.14,16.91,0.9c1.36,1.04,1.41,4.96-0.55,5.65
				c-1.97,0.69-16.55,4.25-21.64,3.75c-5.09-0.51-14.04,2.89-16.18,2.45c-2.14-0.44-2.32-12.33-1.87-15.07
				C795.5,412.11,807.58,412.68,807.58,412.68z"/>
		</g>
	</g>
</g>
<g>
	<g>
		<g>
			<path class="st2" d="M805.86,407.92l1.72,4.76c0,0-9,3.18-12.53,2.17l-1.18-4.86L805.86,407.92z"/>
		</g>
	</g>
</g>
<g>
	<g>
		<g>
			<path class="st3" d="M787.45,416.92c0,0,7.04,4.26,10.22,5.83c3.18,1.57,15.46,1.81,16.69,3.02c1.23,1.2,0.85,5.11-1.18,5.54
				c-2.03,0.43-16.91,2.14-21.91,0.99c-4.99-1.15-14.26,1.1-16.34,0.4c-2.07-0.71-0.93-12.54-0.18-15.2
				C775.52,414.83,787.45,416.92,787.45,416.92z"/>
		</g>
	</g>
</g>
<g>
	<g>
		<g>
			<path class="st2" d="M786.4,411.97l1.05,4.95c0,0-9.29,2.02-12.68,0.58l-0.63-4.97L786.4,411.97z"/>
		</g>
	</g>
</g>
<g>
	<path class="st4" d="M715.81,322.8c0,0,32.11,0.28,36.05,0.83c4.27,0.6,20.98,1.13,22.99,4.17c20.36,30.63,33.66,80.77,33.66,80.77
		l-16.09,3.14c0,0-15.56-29.89-22.08-45.42c-5.85-13.94-10.86-17.52-23.15-17.22c-12.29,0.31-51.6-2.38-74.27-5.16L715.81,322.8z"/>
</g>
<g>
	<path class="st5" d="M712.42,249.04c0,0,9.53,20.32,8.76,27.87c-0.77,7.55-8.97,28.47-9.54,32.68c-0.58,4.2,3.57,12.52,3.57,12.52
		l-42.9,19.68c0,0-1.73-12.44,0-26.77c1.73-14.33,3-29.73,4.91-37.83c6.51-27.64,23.72-39.09,23.72-39.09L712.42,249.04z"/>
</g>
<g>
	<path class="st6" d="M715.19,322.1c0,0,32.11,0.28,36.05,0.83c4.27,0.6,21.35,0.89,22.99,4.17c11.67,23.35,14.29,85.68,14.29,85.68
		l-15.01,1.8c0,0-6.39-31.81-9.69-46.7c-1.75-7.9-8.4-17.48-17.5-16.95c-12.27,0.71-60.43,12.5-74.04-9.15L715.19,322.1z"/>
</g>
<g>
	<path class="st2" d="M687.47,268.23c0.09-3.93,2.4-20.92,12.07-19.76c9.67,1.16,8.55,12.65,7.65,21.32
		c-0.94,9.07-5.69,31.31-4.17,32.45c1.51,1.14,12.98,4.56,15.45,5.05c2.47,0.49,17.33,4.1,18.55,4.44c1.19,0.33-1.2,6.06-1.2,6.06
		s-41.18-1.2-48.06-4.43C680.86,310.13,687.47,268.23,687.47,268.23z"/>
</g>
<g>
	<path class="st2" d="M737.01,311.74c0,0,3.06,0.76,4.53,0.88c1.47,0.12,8.46-2.63,10.63-2.23c2.17,0.4,16.14,7.08,16.77,7.55
		c0.63,0.47-0.37,1.39-0.37,1.39l-32.76-1.17L737.01,311.74z"/>
</g>
<g>
	
		<rect x="723.43" y="318.39" transform="matrix(0.9992 0.04 -0.04 0.9992 13.4415 -29.7834)" class="st7" width="54.52" height="4.95"/>
</g>
<g>
	<polygon class="st7" points="796.27,273.58 777.85,324.43 773.15,322.76 791.57,271.91 	"/>
</g>
<g>
	<path class="st2" d="M737.4,217.03c0,0,1.03,8.34-1.25,8.69c-1.88,0.29-1.22,8.34-1.22,9.62c0,1.27-3.54,0.83-4.5,1.27
		c-0.96,0.45-6.45,8.41-9.2,7.64c-2.75-0.76-13.07-9.51-15-14.12c-1.93-4.61,1.38-20.78,6.07-26.32
		C716.99,198.28,735.54,202.43,737.4,217.03z"/>
</g>
<g>
	<path class="st2" d="M715.92,238.35c0,0-0.28,0.73-0.69,1.87c-0.3,0.84-0.67,1.89-1.06,3.04c-1.05,3.11-2.2,6.87-2.28,8.71
		c-0.16,3.44-10.96-13.89-10.96-13.89s3.89-10.43,6.31-22.64C709.65,203.24,715.92,238.35,715.92,238.35z"/>
</g>
<g>
	<path class="st8" d="M737.56,218.82c0,0,6.77-5.96,1.99-14.17c-4.77-8.22-21.42-3.5-23.01-3.69c-1.59-0.19-9.89-2.8-11.51,13.06
		c-1.61,15.86-0.59,13.48-0.59,13.48s4.08-6.81,6.99-5.71c2.91,1.1,8,1.62,8,1.62s0.1-7.4,4.29-6.83
		C727.92,217.15,734.25,215.89,737.56,218.82z"/>
</g>
<g>
	<path class="st5" d="M686.73,268.97l22.07,0.79c0,0,3.43-22.76-9.26-22.32C686.86,247.88,686.73,268.97,686.73,268.97z"/>
</g>
<g>
	<path class="st2" d="M716.81,218.12c0.01-1.02,0.42-5.24-3.76-4.29c-4.18,0.96-1.66,10.2-1.12,10.52
		C712.47,224.67,716.72,226.68,716.81,218.12z"/>
</g>
<g>
	<path class="st2" d="M700.93,238.08c0,0,18.94,33.92,18.45,29.11c-0.39-3.76-8.59-21.91-8.59-21.91L700.93,238.08z"/>
</g>
<g>
	<path class="st9" d="M715.23,240.22c-0.3,0.84-0.67,1.89-1.06,3.04c-3.82-4.71-6.47-10.04-7.25-11.69
		C708.48,234.38,715.23,240.22,715.23,240.22z"/>
</g>
<g>
	<polygon class="st10" points="715.19,322.1 673.01,347.35 672.29,341.78 	"/>
</g>
<g>
	<g>
		<g>
			<path class="st8" d="M599.99,306.31c0,0,5.55,42.44-25.39,75.03c-30.95,32.59-100.72,20.97-100.72,20.97s11.54-38.52,36.84-54.39
				C536.01,332.06,585.71,326.59,599.99,306.31z"/>
		</g>
	</g>
</g>
<g>
	<g>
		<g>
			<path class="st11" d="M563.99,225.83c0,0,25.51,47.59,3.6,99.58c-21.92,51.99-109.35,68.91-109.35,68.91s-3.61-50.46,19.12-80.27
				C500.08,284.25,556.21,256,563.99,225.83z"/>
		</g>
	</g>
</g>
<g>
	<g>
		<rect x="189.59" y="420.31" class="st12" width="165.05" height="1.98"/>
	</g>
</g>
<g>
	<g>
		<g>
			<polygon class="st13" points="167.49,503.95 134.47,452.82 151.24,460.36 			"/>
		</g>
	</g>
	<g>
		<g>
			<polygon class="st14" points="167.49,503.95 165.48,473.14 153.48,466.36 			"/>
		</g>
	</g>
	<g>
		<g>
			<polygon class="st15" points="142.06,464.58 137.94,469.97 167.49,503.95 			"/>
		</g>
	</g>
</g>
<g>
	<path class="st16" d="M765.19,375.3v304.57c0,15.41-12.6,27.9-28.15,27.9H327.77c-15.55,0-28.15-12.49-28.15-27.9V375.3
		c0-15.41,12.6-27.9,28.15-27.9h409.27C752.59,347.4,765.19,359.89,765.19,375.3z"/>
</g>
<g>
	<path class="st17" d="M765.19,375.3v7.89H299.61v-7.89c0-15.41,12.6-27.9,28.15-27.9h409.27
		C752.59,347.4,765.19,359.89,765.19,375.3z"/>
</g>
<g>
	<path class="st0" d="M489.34,486.88H347.06c-3,0-5.43-2.43-5.43-5.43v-44.81c0-3,2.43-5.43,5.43-5.43h142.27
		c3,0,5.43,2.43,5.43,5.43v44.81C494.77,484.45,492.33,486.88,489.34,486.88z"/>
</g>
<g>
	<path class="st0" d="M483.89,561.71H352.5c-6.5,0-11.78-5.24-11.78-11.67v-34.12c0-6.43,5.28-11.67,11.78-11.67h131.39
		c6.5,0,11.78,5.24,11.78,11.67v34.12C495.67,556.47,490.39,561.71,483.89,561.71z M352.5,506.04c-5.5,0-9.97,4.43-9.97,9.88v34.12
		c0,5.45,4.47,9.88,9.97,9.88h131.39c5.5,0,9.97-4.43,9.97-9.88v-34.12c0-5.44-4.47-9.88-9.97-9.88H352.5z"/>
</g>
<g>
	<path class="st0" d="M652.53,588.05H530.61c-0.78,0-1.41-0.63-1.41-1.41v-6.15c0-0.78,0.63-1.41,1.41-1.41h121.92
		c0.78,0,1.41,0.63,1.41,1.41v6.15C653.94,587.42,653.31,588.05,652.53,588.05z"/>
</g>
<g>
	<path class="st0" d="M652.53,620.67H530.61c-0.78,0-1.41-0.63-1.41-1.41v-6.15c0-0.78,0.63-1.42,1.42-1.42h121.91
		c0.78,0,1.42,0.63,1.42,1.42v6.15C653.94,620.04,653.31,620.67,652.53,620.67z"/>
</g>
<g>
	<path class="st0" d="M708.08,561.71H544.68c-9.04,0-16.39-7.28-16.39-16.24v-98.92c0-8.95,7.35-16.24,16.39-16.24h163.41
		c9.03,0,16.39,7.28,16.39,16.24v98.92C724.47,554.43,717.12,561.71,708.08,561.71z M544.68,432.11c-8.04,0-14.57,6.48-14.57,14.44
		v98.92c0,7.96,6.54,14.44,14.57,14.44h163.41c8.03,0,14.57-6.48,14.57-14.44v-98.92c0-7.96-6.54-14.44-14.57-14.44H544.68z"/>
</g>
<g>
	<g>
		<path class="st17" d="M701.09,590.88l-10.35-8.94c-0.85-0.73-0.94-2.01-0.2-2.85c0.74-0.84,2.03-0.93,2.88-0.2l7.32,6.32
			l10.44-11.54c0.75-0.83,2.04-0.9,2.88-0.15c0.84,0.74,0.91,2.02,0.16,2.85L701.09,590.88z"/>
	</g>
</g>
<g>
	<g>
		<path class="st17" d="M701.09,625.53l-10.35-8.94c-0.85-0.73-0.94-2.01-0.2-2.85c0.74-0.84,2.03-0.93,2.88-0.2l7.32,6.32
			l10.44-11.54c0.75-0.83,2.04-0.9,2.88-0.16c0.84,0.75,0.91,2.02,0.16,2.85L701.09,625.53z"/>
	</g>
</g>
<g>
	<path class="st0" d="M652.53,655.32H530.61c-0.78,0-1.41-0.63-1.41-1.41v-6.15c0-0.78,0.63-1.41,1.41-1.41h121.92
		c0.78,0,1.41,0.63,1.41,1.41v6.15C653.94,654.69,653.31,655.32,652.53,655.32z"/>
</g>
<g>
	<g>
		<path class="st17" d="M701.09,660.17l-10.35-8.94c-0.85-0.73-0.94-2.01-0.2-2.85c0.74-0.84,2.03-0.93,2.88-0.2l7.32,6.32
			l10.44-11.54c0.75-0.83,2.04-0.9,2.88-0.15c0.84,0.74,0.91,2.02,0.16,2.85L701.09,660.17z"/>
	</g>
</g>
<g class="st18">
	<path class="st19" d="M480.79,208.46H212.11c-6.39,0-11.57,5.18-11.57,11.57v164.1c0,6.39,5.18,11.57,11.57,11.57h268.68
		c6.39,0,11.57-5.18,11.57-11.57v-164.1C492.36,213.64,487.18,208.46,480.79,208.46z"/>
</g>
<g>
	<g>
		<g>
			<path class="st12" d="M255.22,317.28c4.25,1.43,8.79,2.22,13.52,2.28c14.32,0.18,27.14-6.45,35.29-16.86
				c5.65-7.22,9.06-16.25,9.19-26.09c0.01-0.98-0.01-1.95-0.06-2.91c-0.23-4.37-1.12-8.57-2.57-12.51
				c-6.06-16.52-21.93-28.41-40.72-28.65c-10.12-0.13-19.48,3.14-26.99,8.75c-10.48,7.83-17.32,20.2-17.5,34.21
				C225.14,294.84,237.67,311.4,255.22,317.28z M236.38,275.63c0.13-10.42,5.19-19.64,12.95-25.52c5.65-4.28,12.74-6.79,20.4-6.69
				c14.08,0.18,25.99,9.1,30.53,21.49l0.01,0.02c1.08,2.95,1.74,6.09,1.92,9.36c0.04,0.72,0.05,1.45,0.04,2.19
				c-0.1,7.38-2.66,14.14-6.89,19.56c-6.11,7.81-15.72,12.79-26.45,12.65c-3.55-0.05-6.96-0.65-10.14-1.71
				C245.59,302.55,236.19,290.14,236.38,275.63z"/>
		</g>
	</g>
	<g>
		<g>
			<path class="st20" d="M295.34,296.03l8.69,6.67c-8.15,10.41-20.96,17.05-35.29,16.87c-4.73-0.06-9.27-0.86-13.52-2.28l3.53-10.32
				c3.19,1.07,6.59,1.67,10.14,1.71C279.62,308.81,289.23,303.84,295.34,296.03z"/>
		</g>
	</g>
	<path class="st21" d="M310.59,261.18l-10.33,3.72l0.01,0.02c1.37,3.74,2.01,7.66,1.96,11.55c-0.09,7.38-2.65,14.15-6.89,19.56
		l8.69,6.67c5.65-7.22,9.06-16.25,9.19-26.09C313.29,271.28,312.39,266.09,310.59,261.18z"/>
	<g>
		<g>
			<path class="st17" d="M242.89,241.28c7.5-5.61,16.86-8.88,26.99-8.75c18.79,0.24,34.66,12.13,40.72,28.65l-10.32,3.74l-0.01-0.02
				c-4.54-12.39-16.45-21.31-30.53-21.49c-7.66-0.09-14.74,2.41-20.4,6.69L242.89,241.28z"/>
		</g>
	</g>
</g>
<path class="st16" d="M387.28,459.26c0-0.27-0.01-0.54-0.02-0.81c0-0.09,0-0.18-0.01-0.28c-0.09-1.62-0.42-3.18-0.95-4.65
	c-2.25-6.14-8.15-10.56-15.13-10.65c-3.76-0.05-7.24,1.17-10.03,3.25c-3.89,2.91-6.44,7.51-6.5,12.71
	c-0.09,7.19,4.56,13.34,11.08,15.53l0,0v0c1.58,0.53,3.27,0.83,5.02,0.85c2,0.03,3.91-0.31,5.69-0.93c2.96-1.05,5.53-2.92,7.42-5.33
	c1.85-2.36,3.05-5.25,3.35-8.41C387.25,460.12,387.28,459.69,387.28,459.26z M358.73,458.89c0.05-3.87,1.93-7.3,4.81-9.48
	c2.1-1.59,4.73-2.52,7.58-2.49c5.23,0.07,9.66,3.38,11.34,7.98l0,0.01c0.4,1.09,0.65,2.26,0.71,3.48h0
	c0.01,0.27,0.02,0.54,0.02,0.81c-0.01,1.17-0.21,2.3-0.54,3.37c-0.44,1.43-1.13,2.74-2.02,3.89c-0.33,0.42-0.69,0.82-1.07,1.19
	c-2.25,2.21-5.35,3.55-8.76,3.51c-0.9-0.01-1.78-0.13-2.62-0.32c-0.39-0.09-0.77-0.19-1.14-0.32
	C362.15,468.9,358.66,464.28,358.73,458.89z"/>
<g>
	<path class="st12" d="M455.81,370.4h-104c-5.62,0-10.18-4.56-10.18-10.18V242.71c0-5.62,4.56-10.18,10.18-10.18h104
		c5.62,0,10.18,4.56,10.18,10.18v117.51C465.99,365.84,461.43,370.4,455.81,370.4z"/>
</g>
<g>
	<path class="st0" d="M315.15,348.4h-86.07c-1.28,0-2.31-1.04-2.31-2.31v-5.14c0-1.28,1.04-2.31,2.31-2.31h86.07
		c1.28,0,2.31,1.04,2.31,2.31v5.14C317.47,347.36,316.43,348.4,315.15,348.4z"/>
</g>
<g>
	<path class="st0" d="M315.15,370.4h-86.07c-1.28,0-2.31-1.04-2.31-2.31v-5.14c0-1.28,1.04-2.31,2.31-2.31h86.07
		c1.28,0,2.31,1.04,2.31,2.31v5.14C317.47,369.36,316.43,370.4,315.15,370.4z"/>
</g>
<g class="st22">
	<path class="st17" d="M813.47,555.22h-178.9c-4.27,0-7.73-3.46-7.73-7.73V433.35c0-4.27,3.46-7.73,7.73-7.73h178.9
		c4.27,0,7.73,3.46,7.73,7.73v114.14C821.2,551.76,817.74,555.22,813.47,555.22z"/>
</g>
<g>
	<path class="st16" d="M708.81,496.01h-59.47c-1.61,0-2.92-1.31-2.92-2.92v-49.08c0-1.61,1.31-2.92,2.92-2.92h59.47
		c1.61,0,2.92,1.31,2.92,2.92v49.08C711.73,494.71,710.42,496.01,708.81,496.01z"/>
</g>
<g>
	<path class="st16" d="M804.98,455.75h-80.61c-0.94,0-1.71-0.77-1.71-1.71v-11.23c0-0.94,0.76-1.71,1.71-1.71h80.61
		c0.94,0,1.71,0.76,1.71,1.71v11.23C806.69,454.98,805.92,455.75,804.98,455.75z"/>
</g>
<g>
	<path class="st16" d="M804.98,478.66h-80.61c-0.94,0-1.71-0.77-1.71-1.71v-11.23c0-0.94,0.77-1.71,1.71-1.71h80.61
		c0.94,0,1.71,0.76,1.71,1.71v11.23C806.69,477.89,805.92,478.66,804.98,478.66z"/>
</g>
<g>
	<path class="st16" d="M805.13,537.48h-32.88c-0.86,0-1.55-0.7-1.55-1.55v-4.45c0-0.86,0.7-1.55,1.55-1.55h32.88
		c0.86,0,1.55,0.7,1.55,1.55v4.45C806.69,536.79,805.99,537.48,805.13,537.48z"/>
</g>
<g>
	<path class="st2" d="M783.79,586.72c0,0-3.1-5.38,1.82-19.8c4.76-13.94,21.23-12.68,26.46-3.75c5.23,8.93,3.47,14.48-4.24,24.57
		C800.13,597.83,786.99,591.33,783.79,586.72z"/>
</g>
<g>
	<path class="st2" d="M822.05,834.78c0,0,0.82,5.92,0.92,6.81c0.1,0.89,9.07-0.53,9.07-0.53l0.73-7.05
		C832.76,834.02,823.17,833.94,822.05,834.78z"/>
</g>
<g>
	<path class="st23" d="M822.87,840.83c0,0-2.84,3.57-5.59,5.12c-2.75,1.56-7.06,2.17-8.69,3.78c-1.17,1.16-4.27,6.17,7.14,6.07
		c11.41-0.1,16.91,0.71,18.13-1.21c1.22-1.92-1.77-14.16-1.77-14.16S829.31,841.21,822.87,840.83z"/>
</g>
<g>
	<path class="st2" d="M759.98,834.78c0,0,0.82,5.92,0.92,6.81c0.1,0.89,9.07-0.53,9.07-0.53l0.73-7.05
		C770.69,834.02,761.1,833.94,759.98,834.78z"/>
</g>
<g>
	<path class="st24" d="M760.8,840.83c0,0-2.84,3.57-5.59,5.12c-2.75,1.56-12.86,2.83-14.48,4.44c-1.17,1.16-3.12,5.84,12.93,5.4
		c11.41-0.31,16.91,0.71,18.13-1.21c1.22-1.92-1.77-14.16-1.77-14.16S766.48,841.06,760.8,840.83z"/>
</g>
<g>
	<path class="st25" d="M819.03,687.34c0,0,4.6,14.15,3.99,26.35c-0.61,12.2,2.38,25.55,3.59,38.29c1.36,14.2,6.92,47.84,7.12,55.43
		c0.2,7.6-0.86,31.86-0.86,31.86l-11.13,0.27c0,0-9.35-58.79-11.77-64.79c-2.42-6-14.43-48.77-14.84-53.57
		C794.74,716.39,819.03,687.34,819.03,687.34z"/>
</g>
<g>
	<path class="st26" d="M772.87,685.87c0,0-6.76,37.43-7.57,44.89c-0.81,7.47-1.35,36.13-1.75,40.79c-0.4,4.67-2.69,61.06-4.84,67.99
		h12.41c0,0,12.74-41,12.74-60.39c0-19.4,8.44-42.17,13.89-54.97c5.45-12.8,17.92-13.1,21.27-36.85
		C819.03,687.34,777.41,678.33,772.87,685.87z"/>
</g>
<g>
	<path class="st2" d="M788.3,590.53c0,0,1.4,4.04,0,6.92c-1.4,2.88,17.89,1.15,17.89,1.15s-0.87-5.95,1.65-10.85
		C810.36,582.84,788.3,590.53,788.3,590.53z"/>
</g>
<g>
	<path class="st27" d="M819.93,690.42c0,0-6.94,7.06-47.68-1.1l0.62-3.46l46.31,1.73L819.93,690.42z"/>
</g>
<g>
	<path class="st2" d="M785.38,598.38c0,0-7.13,0.72-9.16,1.1c-2.04,0.39-15.74-2.43-18.55-2.72s-14.8-8.43-15.19-9.39
		c-0.39-0.96-7.29-18.28-7.68-22.03c-0.39-3.75-6.73-1.81-6.18,0.77c1.02,4.83,2.32,16.55,3.04,19.95c0.77,3.67,2.84,11.98,4.01,13
		c1.16,1.02,11.96,9.16,22.52,12.62c10.57,3.46,18.52,8.55,18.52,8.55h52.07c0,0,20.25-28.69,20.69-33.01
		c0.44-4.32-14.15-33.05-17.05-36.66c-2.91-3.6-7.12,1.18-7.12,1.18s8.71,25.34,9.88,28.94c1.16,3.6-10.14,19.43-13.24,19.48
		c-3.1,0.05-11.07-0.96-14.61-1.1c-3.54-0.14-7.27-1.68-7.27-1.68L785.38,598.38z"/>
</g>
<g>
	<path class="st5" d="M760.4,620.35c0,0,6.37,4.2,6.96,11.4c0.58,7.21,2.91,18.59,4.07,22.48c1.16,3.89-1.02,32.13-1.31,34.15
		c-0.29,2.02,40.3,6.81,46.53,2.02c0,0,1.74-26.37,2.47-33.86c0.73-7.49,4.22-25.65,5.38-28.1c1.16-2.45,15.27-22.05,15.85-24.64
		c0,0-7.3-11.53-12.53-11.67c0,0-8.31,9.65-11.02,10.09c-2.71,0.43-19.32-2.58-19.33-2.61c0,0-1.81,2.45-11.45-0.44
		c0,0-11.48,1.28-13.35,1.52c-2.26,0.29-17.98-1.96-17.98-1.96s-6.31,10.55-5.2,15.88L760.4,620.35z"/>
</g>
<g>
	<path class="st2" d="M735.16,567.6c0,0-1.42-6.68,0.29-8.6c0.98-1.09,3.32-3.98,3.54-4.41c0.22-0.42,2.73-1.86,2.73-2.55
		c0-0.69-2.46-1.54-4.61,0.43c-2.14,1.96-3.48,2.39-4.34,2.18c-0.86-0.21-2.09-7.27-2.2-9.02s-0.79-6.37-1.89-6.05
		c-1.1,0.32-1.05,2.34-1.05,2.34s-1.29-3.51-2.14-2.81c-0.86,0.69-0.75,2.39-0.75,2.39s-1.61-1.96-2.04-0.53
		c-0.43,1.43,0,2.71,0,2.71s-1.66-0.9-1.77,1.33c-0.11,2.23,0.48,8.76,1.66,11.09c1.18,2.34,5.59,8.45,6.11,10.83
		C729.24,569.3,735.16,567.6,735.16,567.6z"/>
</g>
<g>
	<path class="st2" d="M826.72,555.87c0,0-4.85-8.07-6.49-8.79c-1.65-0.72-3.98-1.13-6.01-2.57c-2.04-1.44-4.73-2.64-4.58-3.12
		c0.15-0.48,2.55-0.29,5.12,0.82c2.57,1.1,3.7,0.57,3.94-0.01c0.24-0.58-1.37-4.64-2.14-5.61c-0.78-0.96-6.3-6.47-5.38-7.28
		c0.92-0.82,4.51,2.21,5.09,2.83c0,0-2.86-5.96-1.74-6.24c1.11-0.29,3.2,1.83,3.2,1.83s-0.24-5.09,5.28,3.17
		c0,0-1.16-2.74,0.53-1.83c1.7,0.91,3.35,6.05,3.88,8.65c0.53,2.59,2.95,10.86,5.02,12.85
		C834.48,552.56,826.72,555.87,826.72,555.87z"/>
</g>
<g>
	<path class="st28" d="M807.84,587.74c0,0-2.55,0.22-7.98-1.63c-5.43-1.86-5.83-11.26-7.01-10.15c-2.4,2.27-4.66,0.7-5.56-0.64
		c0,0,2.65-3.46,1.42-5.12c-1.23-1.66-3.23-2.88-3.23-2.88s3.82-18.24,21.19-9.93C827.03,567.12,807.84,587.74,807.84,587.74z"/>
</g>
<g>
	<path class="st29" d="M788.3,597.44l0.61-2.64c0,0,11.09-0.22,17.14,0.65l0.64,3.15C806.69,598.61,798.94,602.09,788.3,597.44z"/>
</g>
<g>
	<path class="st2" d="M791.03,573.65c1.01-1.66,4.73-2.78,5.17,1.92c0.34,3.64-6.66,7.62-6.72,4.23
		C789.42,576.41,790.36,574.76,791.03,573.65z"/>
</g>
<g>
	<path class="st30" d="M734.9,566.08c0,0-4,0.1-5.94,1.83c0,0-0.13,1.1,0.32,1.97c0,0,3.47-1.6,6.13-1.9
		C735.41,567.99,735.37,566.55,734.9,566.08z"/>
</g>
<g>
	<path class="st28" d="M730.18,567.07c-0.37,0.87,0.04,1.87,0.92,2.23c0.88,0.37,1.88-0.04,2.25-0.91s-0.04-1.87-0.92-2.23
		C731.56,565.8,730.55,566.21,730.18,567.07z"/>
</g>
<g class="st22">
	<path class="st17" d="M409.53,567.97H267.25c-3,0-5.43-2.43-5.43-5.43v-44.81c0-3,2.43-5.43,5.43-5.43h142.27
		c3,0,5.43,2.43,5.43,5.43v44.81C414.96,565.54,412.52,567.97,409.53,567.97z"/>
</g>
<g>
	<g>
		<g>
			<g>
				<path class="st2" d="M142.81,676.39c0,0,0.61,3.26,2.45,3.74c1.57,0.41,3.3,2.06,3.83,2.57c0.71,0.68,3.69,1.96,2.83,2.85
					c-0.85,0.9-5-1.87-5.99-2.28c-0.99-0.41,0.43,4.12,0.03,5.15c-0.4,1.03-8.1,2.93-8.71-0.29c-0.61-3.22,0.89-7.06,0.67-7.6
					c-0.22-0.54-0.53-2.32-0.53-2.32L142.81,676.39z"/>
			</g>
		</g>
	</g>
</g>
<g>
	<g>
		<g>
			<g>
				<path class="st2" d="M146,687.64c0,0,1.2,9.98,0.72,10.71c-0.48,0.73-1.03,0.76-1.18-0.16c-0.15-0.93-1.44-9.61-1.44-9.61
					s-0.58,12.05-0.85,12.73c-0.15,0.4-1.21,0.53-1.34,0.04c-0.13-0.49-0.24-12.46-0.24-12.46s-0.57,11.25-0.96,11.75
					c-0.34,0.45-1.35,0.32-1.36-0.52c-0.02-0.84-0.09-11.3-0.09-11.3s-0.93,8.16-1.52,8.39c-0.36,0.15-1.27,0.29-0.96-1.8
					c0.31-2.1,0.51-7.12,0.51-7.12L146,687.64z"/>
			</g>
		</g>
	</g>
</g>
<g>
	<path class="st2" d="M250.95,553.97c0,0,1.65-3.06,2.22-5.5c0.57-2.44,3.64-5.7,4.89-6.47c1.25-0.77,10.34-7.22,11.39-7.22
		c1.05,0,0.44,2-0.47,2.58c-0.91,0.58-8.29,6.28-8.29,6.28s9.18-6.28,10.14-6.11c0.96,0.17,1.64,1.38,0.61,2.62
		c0,0,2.09,1.36-0.09,3.02l-4.34,3.32c0,0,2.55-1.32,1.61,0.72c-0.5,1.08-5.84,4.24-6.7,5.2c-0.86,0.96-7.59,4.21-7.59,4.21
		L250.95,553.97z"/>
</g>
<g>
	<path class="st2" d="M197.15,833.61h2.28c0,0-0.76-8.52,1.35-8.6c2.11-0.08,7.33,6.93,10.45,8.02c3.12,1.09,19.13,2,19.21-0.92
		c0.09-2.92-6.15-4.09-8.09-4.93c-1.94-0.84-11.38-9.94-13.06-11.02c-1.69-1.08-4.47-6.6-4.47-6.6h-8.59c0,0-0.94,4.62-1.48,8.36
		c-0.2,1.38-0.35,2.64-0.37,3.5C194.29,824.59,197.15,833.61,197.15,833.61z"/>
</g>
<g>
	<path class="st2" d="M157.61,831.92h1.9v-7.93c1.58,0.13,6.89,5.11,8.53,6.55c1.64,1.44,3.9,1.38,10.82,1.81
		c6.92,0.44,7.57-3.67,6.48-5.07c-1.1-1.4-4.64-2.01-6.48-2.88c-1.84-0.87-9.11-9-11.05-10.92c-1.94-1.92-3.12-7.42-3.12-7.42
		l-8.09,0.7c0,0,0.05,5.04-0.87,9.26v0c0,0.01-0.01,0.02-0.01,0.03c-0.08,0.36-0.16,0.72-0.26,1.06
		C154.26,821.51,157.61,831.92,157.61,831.92z"/>
</g>
<g>
	<path class="st2" d="M176.53,566.94c0,0-3.95,8.25-1.84,15c0,0-12.15-1.64-12.51-3.05c-0.36-1.41,1.52-14.07,0.12-17.95
		C160.9,557.06,176.53,566.94,176.53,566.94z"/>
</g>
<g>
	<path class="st5" d="M176.82,579.21c0,0,7.03,2.99,10.24,3.91c3.21,0.92,9.8,4.53,8.39,16.21c-1.41,11.69-4.19,21.71-5.3,26.7
		c-1.11,4.99-1.58,17.84-0.84,24.16c0,0-17.6,2.97-37.63-2.7c0,0,4.38-10.37,4.49-13.12c0.11-2.76-10.16-26.24-10.46-29.86
		c-0.29-3.61-1.54-19.54,4.16-22.63c5.71-3.09,10.11-2.31,12.54-3.7C164.85,576.78,173.53,577.85,176.82,579.21z"/>
</g>
<g>
	<path class="st5" d="M176.79,597.38c0,0-2.7-14.04,11.03-14.02c12.07,0.02,23.47-2.25,25.39-3.3c1.91-1.05,9.29-4.65,13.17-8.6
		c3.88-3.95,24.88-19.78,24.88-19.78l5.81,5.82c0,0-22.16,23.85-25.73,26.17c-3.57,2.32-33.57,18.93-37.38,19.45
		C190.15,603.65,179.47,606.53,176.79,597.38z"/>
</g>
<g>
	<path class="st5" d="M133.64,640.76c-0.41,4.94,2.3,39.08,2.3,39.08l9.77,1.12c0,0-0.69-33.71-1.24-41.49
		c-0.16-2.29,0.37-5.8,1.21-9.61v0c0.53-2.42,1.18-4.96,1.85-7.38c1.85-6.69,3.84-12.49,3.84-12.49s10.94-28.19-2.78-27.05
		c0,0-5.1,5.21-7.26,13.76c-2.16,8.55-4.63,21.36-4.72,26.46C136.5,628.25,133.94,637.12,133.64,640.76z"/>
</g>
<g>
	<path class="st16" d="M186.96,649.91c0,0,3.15,7.38,3.43,9.25c0.28,1.86,10.16,26.24,10.85,33.37c0.69,7.21,2.78,26.46,3.52,29.21
		c0.74,2.76-1.67,15.06-2.04,17.82c-0.37,2.76-0.19,47.77,3.15,69.99c0,0-7.79,3.31-13.72,0c0,0-9.83-34.72-9.27-54.75
		c0.56-20.03,3.12-28.47-0.02-36.56c-3.14-8.08-21.49-32.33-23.34-34.91c-1.85-2.57-13.47-16.78-2.47-32.18
		C168.05,635.77,186.96,649.91,186.96,649.91z"/>
</g>
<g>
	<path class="st16" d="M149,715.68c0.98,6.43-0.05,14.88-2.09,38.4c-2.04,23.51,3.57,51.99,3.57,51.99c7.04,2.39,15.15,0,15.15,0
		c-0.19-1.65,0-57.32,0-62.28c0-4.96,1.44-10.59,1.81-16.28c0.25-3.88,2.07-11.03,4.12-18.34c0.62-2.19,1.25-4.39,1.87-6.52
		c0,0,0,0,0,0c0.35-1.19,0.69-2.37,1.02-3.5c2.89-9.92,6.77-48.23,6.77-48.23s-21.52-17.17-31.99-1.01
		c-10.48,16.16-5.1,27.92-4.73,29.94C144.87,681.88,148.03,709.25,149,715.68z"/>
</g>
<g>
	<path class="st5" d="M190.7,621.02c0,0-1.91,30.43,3.81,47.56c0,0-22.72,3.76-51.71-5.92c0,0,7.97-20.46,7.7-23.66
		c-0.28-3.2-8.67-40.45-4.64-48.79C149.88,581.88,189.27,593.7,190.7,621.02z"/>
</g>
<g>
	<path class="st2" d="M172.14,533.01c5.19-0.21,18.46,1.79,15.99,21.59c-2.47,19.81-9.69,18.09-16.84,15.46
		c-7.15-2.63-14.71-18.65-14.41-22.77C157.18,543.17,157.32,533.6,172.14,533.01z"/>
</g>
<g>
	<path class="st28" d="M188.05,545.44c0,0-6.34,6.92-12.3,8.25c0,0-5.08,7.64-13.06,9.1c0,0-15.55-17.04-0.63-27.94
		C176.98,523.96,188.59,539.37,188.05,545.44z"/>
</g>
<g>
	<path class="st2" d="M177.05,551.04c-0.12-1.1-2.39-3.49-4.44-1.15c-2.06,2.34,0.94,8.36,2.24,8.45
		C176.13,558.44,177.49,555.22,177.05,551.04z"/>
</g>
<g>
	<path class="st12" d="M157.92,681.13c0.17,0.37,10.89,23.95,13.65,28.04c0.62-2.19,1.25-4.39,1.87-6.52c0,0,0,0,0,0
		S158.28,681.65,157.92,681.13z"/>
</g>
<g>
	<path class="st8" d="M145.19,605.68c0,0-0.76,14.98,0.48,24.17c0.53-2.42,1.18-4.96,1.85-7.38
		C147.47,622.13,145.39,608.05,145.19,605.68z"/>
</g>
<g>
	<path class="st28" d="M168.14,531.72c0,0-18.08-0.41-15.36,30.37c2.09,23.65-6.69,35.34-5.45,38.79c1.24,3.45,5.48,9.21,14.96,4.01
		c9.49-5.2,3.24-32.31,8.34-42.86c5.1-10.55,16.29-15.44,16.29-15.44S184.95,528.63,168.14,531.72z"/>
</g>
<g>
	<path class="st5" d="M192.53,594.04c0,0,4.13,14.61,5.11,18.06c1.27,4.48-4.64,12.92-9.89,10.33
		C182.51,619.84,192.53,594.04,192.53,594.04z"/>
</g>
<g>
	<path class="st31" d="M157.61,831.92h1.9v-7.93c1.58,0.13,6.89,5.11,8.53,6.55c1.64,1.44,3.9,1.38,10.82,1.81
		c6.92,0.44,7.57-3.67,6.48-5.07c-1.1-1.4-4.64-2.01-6.48-2.88c-7.4,0.39-16.44-9.92-20.77-9.9c-2.3,0.01-2.28,1.28-2.35,1.52v0
		c0,0.01-0.01,0.02-0.01,0.03c-0.08,0.36-0.16,0.72-0.26,1.06C154.26,821.51,157.61,831.92,157.61,831.92z"/>
</g>
<g>
	<path class="st31" d="M197.15,833.61h2.28c0,0-0.76-8.52,1.35-8.6c2.11-0.08,7.33,6.93,10.45,8.02c3.12,1.09,19.13,2,19.21-0.92
		c0.09-2.92-6.15-4.09-8.09-4.93c-6.6-0.02-17.34-7.22-20.67-8.68c-3.33-1.46-6.93-0.58-6.93-0.58c-0.2,1.38-0.35,2.64-0.37,3.5
		C194.29,824.59,197.15,833.61,197.15,833.61z"/>
</g>
<g>
	<g>
		<path class="st32" d="M660.32,221.54l-0.41-1.75c3.2-0.74,4.86-1.38,4.88-1.39l0.66,1.67
			C665.38,220.1,663.65,220.77,660.32,221.54z"/>
	</g>
	<g>
		<path class="st32" d="M137.64,434.38c-1.12-3.1-2.19-6.39-3.18-9.77l1.74-0.5c0.98,3.36,2.04,6.61,3.14,9.67L137.64,434.38z
			 M131.83,414.68c-0.78-3.26-1.5-6.63-2.15-10.03l1.78-0.33c0.65,3.38,1.36,6.73,2.13,9.95L131.83,414.68z M127.96,394.54
			c-0.5-3.34-0.94-6.76-1.31-10.17l1.8-0.19c0.37,3.39,0.81,6.78,1.31,10.1L127.96,394.54z M125.72,374.16
			c-0.25-3.39-0.43-6.83-0.55-10.23l1.81-0.06c0.12,3.39,0.31,6.81,0.55,10.17L125.72,374.16z M126.8,353.68l-1.81,0
			c0-3.41,0.06-6.85,0.19-10.25l1.81,0.06C126.86,346.87,126.8,350.3,126.8,353.68z M127.55,333.33l-1.81-0.13
			c0.25-3.41,0.57-6.84,0.95-10.21l1.8,0.2C128.11,326.53,127.8,329.94,127.55,333.33z M129.82,313.09l-1.79-0.27
			c0.51-3.39,1.1-6.79,1.74-10.11l1.78,0.34C130.91,306.35,130.33,309.73,129.82,313.09z M133.69,293.09l-1.76-0.41
			c0.79-3.34,1.66-6.68,2.58-9.94l1.75,0.49C135.33,286.46,134.47,289.77,133.69,293.09z M139.25,273.49l-1.72-0.56
			c1.08-3.26,2.25-6.51,3.48-9.67l1.69,0.64C141.48,267.03,140.32,270.26,139.25,273.49z M146.6,254.49l-1.66-0.72
			c1.4-3.14,2.88-6.26,4.42-9.28l1.62,0.81C149.46,248.29,147.99,251.38,146.6,254.49z M155.84,236.34l-1.57-0.89
			c1.72-2.97,3.53-5.92,5.39-8.77l1.52,0.98C159.34,230.47,157.54,233.39,155.84,236.34z M639.67,223.82l-0.03-1.8
			c3.51-0.05,6.94-0.25,10.21-0.59l0.19,1.79C646.73,223.57,643.24,223.77,639.67,223.82z M629.3,223.55
			c-3.37-0.22-6.84-0.56-10.32-1.02l0.24-1.78c3.44,0.46,6.87,0.79,10.19,1.01L629.3,223.55z M608.76,220.85
			c-3.32-0.65-6.72-1.41-10.1-2.27l0.45-1.74c3.35,0.85,6.71,1.61,10,2.25L608.76,220.85z M167.01,219.28l-1.46-1.06
			c2.04-2.76,4.18-5.48,6.36-8.1l1.4,1.14C171.15,213.86,169.03,216.55,167.01,219.28z M588.7,215.78c-3.23-1-6.53-2.1-9.81-3.27
			l0.62-1.69c3.25,1.17,6.52,2.26,9.73,3.25L588.7,215.78z M569.24,208.81c-3.13-1.28-6.32-2.65-9.48-4.09l0.75-1.63
			c3.14,1.43,6.31,2.8,9.42,4.06L569.24,208.81z M180.07,203.63l-1.33-1.22c2.35-2.49,4.8-4.95,7.29-7.29l1.25,1.3
			C184.82,198.74,182.39,201.17,180.07,203.63z M550.44,200.27c-3.03-1.51-6.11-3.11-9.15-4.76l0.87-1.58
			c3.03,1.64,6.09,3.23,9.1,4.74L550.44,200.27z M532.3,190.45c-1.18-0.69-2.37-1.39-3.57-2.11c-1.69-1.01-3.47-2.05-5.3-3.08
			l0.9-1.56c1.85,1.05,3.64,2.09,5.34,3.11c1.19,0.71,2.38,1.41,3.55,2.1L532.3,190.45z M194.92,189.64l-1.17-1.37
			c1.8-1.51,3.67-3,5.54-4.44c0.85-0.65,1.71-1.3,2.56-1.94l1.09,1.43c-0.85,0.64-1.7,1.28-2.54,1.93
			C198.55,186.67,196.7,188.15,194.92,189.64z M514.41,180.35c-2.96-1.55-6.05-3.11-9.17-4.63l0.8-1.61
			c3.13,1.53,6.24,3.09,9.22,4.65L514.41,180.35z M211.28,177.37l-1.03-1.48c2.84-1.94,5.75-3.83,8.65-5.63l0.96,1.52
			C216.98,173.57,214.09,175.45,211.28,177.37z M495.94,171.36c-3.09-1.4-6.25-2.79-9.41-4.13l0.71-1.65
			c3.17,1.34,6.35,2.74,9.45,4.15L495.94,171.36z M228.69,166.59l-0.89-1.56c2.99-1.67,6.06-3.3,9.12-4.84l0.82,1.6
			C234.7,163.31,231.66,164.93,228.69,166.59z M477.02,163.33c-3.17-1.25-6.4-2.48-9.61-3.66l0.63-1.68
			c3.22,1.18,6.47,2.41,9.65,3.67L477.02,163.33z M247,157.4l-0.74-1.64c3.13-1.4,6.33-2.74,9.53-4l0.67,1.67
			C253.28,154.68,250.1,156.02,247,157.4z M457.72,156.26c-3.24-1.1-6.53-2.16-9.78-3.17l0.54-1.71c3.26,1.01,6.57,2.08,9.82,3.18
			L457.72,156.26z M438.08,150.18c-3.3-0.93-6.64-1.83-9.93-2.66l0.45-1.74c3.31,0.84,6.66,1.74,9.98,2.67L438.08,150.18z
			 M266.08,149.9l-0.59-1.7c3.24-1.11,6.56-2.16,9.85-3.13l0.51,1.72C272.59,147.76,269.3,148.8,266.08,149.9z M418.15,145.13
			c-3.35-0.75-6.73-1.46-10.06-2.11l0.35-1.76c3.35,0.65,6.75,1.37,10.11,2.12L418.15,145.13z M285.77,144.13l-0.44-1.74
			c3.32-0.82,6.71-1.57,10.09-2.25l0.36,1.76C292.43,142.57,289.06,143.32,285.77,144.13z M397.96,141.2
			c-3.39-0.56-6.81-1.07-10.17-1.52l0.24-1.78c3.38,0.45,6.82,0.96,10.22,1.52L397.96,141.2z M305.89,140.09l-0.28-1.77
			c3.37-0.53,6.82-1,10.24-1.4l0.21,1.78C312.66,139.09,309.23,139.56,305.89,140.09z M377.58,138.49
			c-3.42-0.35-6.86-0.64-10.24-0.87l0.13-1.79c3.4,0.23,6.87,0.53,10.3,0.87L377.58,138.49z M326.28,137.71l-0.14-1.79
			c3.4-0.26,6.88-0.46,10.32-0.59l0.07,1.8C333.11,137.26,329.66,137.45,326.28,137.71z M357.07,137.09
			c-3.29-0.11-6.61-0.17-9.86-0.17h-0.41l0-1.8l0.42,0c3.27,0,6.61,0.06,9.92,0.17L357.07,137.09z"/>
	</g>
	<g>
		<path class="st32" d="M143.74,448.61c-0.77-1.49-1.53-3.07-2.27-4.7l1.65-0.73c0.72,1.6,1.47,3.15,2.23,4.62L143.74,448.61z"/>
	</g>
</g>
<g>
	<g>
		<rect x="330.83" y="606.85" class="st12" width="13.94" height="50.17"/>
	</g>
</g>
<g>
	<g>
		<rect x="350.66" y="601.79" class="st12" width="13.94" height="55.23"/>
	</g>
</g>
<g>
	<g>
		<rect x="370.76" y="612.3" class="st12" width="13.94" height="44.72"/>
	</g>
</g>
<g>
	<g>
		<rect x="390.86" y="591.57" class="st12" width="13.94" height="65.44"/>
	</g>
</g>
<g>
	<g>
		<rect x="411.94" y="598.09" class="st12" width="13.94" height="58.92"/>
	</g>
</g>
<g>
	<g>
		<rect x="433.32" y="606.85" class="st12" width="13.94" height="50.17"/>
	</g>
</g>
<g>
	<g>
		<rect x="453.15" y="601.79" class="st12" width="13.94" height="55.23"/>
	</g>
</g>
<g>
	<g>
		<rect x="473.25" y="612.3" class="st12" width="13.94" height="44.72"/>
	</g>
</g>
<path class="st16" d="M309.36,538.37c0-0.08,0-0.16,0-0.23c-0.09-1.62-0.42-3.18-0.95-4.65c-2.25-6.14-8.15-10.56-15.13-10.65
	c-3.76-0.05-7.24,1.17-10.03,3.25c-3.89,2.91-6.44,7.51-6.5,12.71c-0.09,7.19,4.56,13.34,11.08,15.53l0,0l0,0
	c1.58,0.53,3.27,0.83,5.02,0.85c2.06,0.03,4.04-0.33,5.87-1c2.88-1.06,5.39-2.89,7.24-5.26c1.84-2.35,3.04-5.21,3.34-8.34
	c0.04-0.45,0.07-0.9,0.07-1.36C309.38,538.93,309.37,538.65,309.36,538.37z M280.83,538.86c0.05-3.87,1.93-7.3,4.81-9.48
	c2.1-1.59,4.73-2.52,7.58-2.49c5.23,0.07,9.66,3.38,11.34,7.99l0,0.01c0.4,1.09,0.65,2.26,0.71,3.48h0
	c0.01,0.27,0.02,0.54,0.02,0.81c-0.01,1.18-0.21,2.31-0.54,3.38c-0.44,1.42-1.13,2.74-2.02,3.89c-0.33,0.42-0.69,0.82-1.07,1.19
	c-2.25,2.21-5.35,3.55-8.76,3.51c-0.9-0.01-1.78-0.13-2.63-0.32c-0.39-0.09-0.77-0.19-1.14-0.31
	C284.25,548.86,280.76,544.25,280.83,538.86z"/>
<g class="st33">
	<path class="st17" d="M676.62,776.74H553.59c-3.84,0-6.95-3.11-6.95-6.95v-92.18c0-3.84,3.11-6.95,6.95-6.95h123.03
		c3.84,0,6.95,3.11,6.95,6.95v92.18C683.57,773.63,680.46,776.74,676.62,776.74z"/>
</g>
<g>
	<path class="st16" d="M671.15,763.94h-57.39c-2.35,0-4.25-1.9-4.25-4.25v-73.93c0-2.35,1.9-4.25,4.25-4.25h57.39
		c2.35,0,4.25,1.9,4.25,4.25v73.93C675.4,762.04,673.49,763.94,671.15,763.94z"/>
</g>
<g>
	<path class="st16" d="M593.58,693.26h-30.24c-1.44,0-2.6-1.17-2.6-2.6v-6.54c0-1.44,1.17-2.6,2.6-2.6h30.25
		c1.44,0,2.6,1.17,2.6,2.6v6.54C596.19,692.09,595.02,693.26,593.58,693.26z"/>
</g>
<g>
	<path class="st16" d="M593.59,715.2h-30.25c-1.44,0-2.6-1.17-2.6-2.6v-6.54c0-1.44,1.17-2.6,2.6-2.6h30.25c1.44,0,2.6,1.17,2.6,2.6
		v6.54C596.19,714.03,595.02,715.2,593.59,715.2z"/>
</g>
</svg>
